# xmcd CD database file
#
# Track frame offsets:
#	150
#	16222
#	34687
#
# Disc length: 730 seconds
#
# Revision: 1
# Processed by: cddbd v1.5.2PL0 Copyright (c) Steve Scherf et al.
# Submitted via: CDex 1.70beta2
#
DISCID=1702d803
DTITLE=SORKKA - VIIMEINEN JAE (2012 E.P)
DYEAR=2012
DGENRE=Melodic Death Metal
TTITLE0=KOSTO
TTITLE1=KREMATORIO
TTITLE2=HYVASTI
EXTD=YEAR: 2012
EXTT0=
EXTT1=
EXTT2=
PLAYORDER=
